<svg width="345" height="45" viewBox="0 0 345 45" fill="none" xmlns="http://www.w3.org/2000/svg">
<path d="M0 29V0.679998H4.32V29H0ZM5.76 29V0.679998H7.2V29H5.76ZM8.64 29V0.679998H10.08V29H8.64ZM14.4 29V0.679998H15.84V29H14.4ZM17.28 29V0.679998H21.6V29H17.28ZM13.296 41.048H9.696L8.592 44.312H7.344L11.424 32.984H11.568L15.696 44.312H14.4L13.296 41.048ZM12.96 40.088L11.52 35.864L10.032 40.088H12.96ZM23.0625 29V0.679998H24.5025V29H23.0625ZM28.8225 29V0.679998H30.2625V29H28.8225ZM31.7025 29V0.679998H33.1425V29H31.7025ZM37.4625 29V0.679998H38.9025V29H37.4625ZM43.2225 29V0.679998H44.6625V29H43.2225ZM46.1025 29V0.679998H47.5425V29H46.1025ZM48.9825 29V0.679998H53.3025V29H48.9825ZM54.7425 29V0.679998H59.0625V29H54.7425ZM63.3825 29V0.679998H64.8225V29H63.3825ZM66.2625 29V0.679998H67.7025V29H66.2625ZM44.5185 37.16H42.7425V36.152H44.5185V35.48C44.5185 34.424 44.7905 33.64 45.3345 33.128C45.8785 32.616 46.6145 32.36 47.5425 32.36C48.0545 32.36 48.5345 32.44 48.9825 32.6C49.4305 32.792 49.7985 33.08 50.0865 33.464L49.4145 34.424L49.2705 34.568L49.1745 34.472C49.1745 34.44 49.1745 34.392 49.1745 34.328C49.1425 34.264 49.1105 34.184 49.0785 34.088C49.0145 33.992 48.9345 33.912 48.8385 33.848C48.6785 33.688 48.5025 33.56 48.3105 33.464C48.1185 33.4 47.8625 33.368 47.5425 33.368C46.9985 33.368 46.5665 33.544 46.2465 33.896C45.9265 34.216 45.7665 34.744 45.7665 35.48V36.152H48.4545V37.16H45.7665V44.312H44.5185V37.16ZM69.1406 29V0.679998H70.5806V29H69.1406ZM74.9006 29V0.679998H76.3406V29H74.9006ZM77.7806 29V0.679998H79.2206V29H77.7806ZM83.5406 29V0.679998H84.9806V29H83.5406ZM89.3006 29V0.679998H90.7406V29H89.3006ZM92.1806 29V0.679998H93.6206V29H92.1806ZM95.0606 29V0.679998H96.5006V29H95.0606ZM97.9406 29V0.679998H102.261V29H97.9406ZM103.701 29V0.679998H108.021V29H103.701ZM112.341 29V0.679998H113.781V29H112.341ZM95.6366 43.544C94.8686 44.152 94.0046 44.456 93.0446 44.456C92.1486 44.456 91.5086 44.184 91.1246 43.64C90.7406 43.064 90.5486 42.168 90.5486 40.952C90.5486 40.728 90.5646 40.376 90.5966 39.896L90.7886 37.208H88.9646V36.152H90.8366L90.9806 33.992L92.3726 33.752H92.5646V33.848C92.5006 33.944 92.4526 34.04 92.4206 34.136C92.3566 34.232 92.3246 34.36 92.3246 34.52L92.1326 36.152H94.8206V37.208H92.0366L91.8926 39.992C91.8606 40.472 91.8446 40.776 91.8446 40.904C91.8446 41.864 91.9566 42.52 92.1806 42.872C92.4046 43.192 92.7566 43.352 93.2366 43.352C93.5886 43.352 93.9246 43.288 94.2446 43.16C94.5326 43.032 94.8686 42.824 95.2526 42.536L95.6366 43.544ZM115.219 29V0.679998H116.659V29H115.219ZM120.979 29V0.679998H122.419V29H120.979ZM123.859 29V0.679998H125.299V29H123.859ZM129.619 29V0.679998H131.059V29H129.619ZM135.379 29V0.679998H136.819V29H135.379ZM138.259 29V0.679998H142.579V29H138.259ZM144.019 29V0.679998H145.459V29H144.019ZM146.899 29V0.679998H151.219V29H146.899ZM155.539 29V0.679998H156.979V29H155.539ZM158.419 29V0.679998H159.859V29H158.419ZM138.643 44.504C137.427 44.504 136.467 44.136 135.763 43.4C135.027 42.664 134.659 41.624 134.659 40.28C134.659 39.384 134.835 38.6 135.187 37.928C135.507 37.288 135.955 36.808 136.531 36.488C137.075 36.136 137.699 35.96 138.403 35.96C139.395 35.96 140.195 36.28 140.803 36.92C141.411 37.592 141.715 38.568 141.715 39.848C141.715 39.976 141.715 40.168 141.715 40.424H135.907C135.939 41.416 136.211 42.168 136.723 42.68C137.235 43.192 137.891 43.448 138.691 43.448C139.555 43.448 140.259 43.144 140.803 42.536L141.523 43.256C140.819 44.088 139.859 44.504 138.643 44.504ZM140.419 39.416C140.419 38.648 140.227 38.04 139.843 37.592C139.459 37.144 138.947 36.92 138.307 36.92C137.731 36.92 137.219 37.128 136.771 37.544C136.323 37.96 136.051 38.584 135.955 39.416H140.419ZM161.297 29V0.679998H162.737V29H161.297ZM167.057 29V0.679998H168.497V29H167.057ZM169.937 29V0.679998H171.377V29H169.937ZM175.697 29V0.679998H177.137V29H175.697ZM181.457 29V0.679998H182.897V29H181.457ZM184.337 29V0.679998H188.657V29H184.337ZM190.097 29V0.679998H191.537V29H190.097ZM192.977 29V0.679998H194.417V29H192.977ZM195.857 29V0.679998H200.177V29H195.857ZM204.497 29V0.679998H205.937V29H204.497ZM185.873 35.96C186.737 35.96 187.457 36.264 188.033 36.872L187.457 37.832L187.409 38.024L187.265 37.928C187.233 37.8 187.201 37.704 187.169 37.64C187.105 37.544 186.993 37.448 186.833 37.352C186.545 37.16 186.193 37.064 185.777 37.064C185.361 37.064 184.961 37.176 184.577 37.4C184.193 37.592 183.889 37.912 183.665 38.36C183.409 38.808 183.281 39.352 183.281 39.992V44.312H181.985V36.152H183.329L183.281 37.64C183.505 37.128 183.857 36.712 184.337 36.392C184.817 36.104 185.329 35.96 185.873 35.96ZM207.375 29V0.679998H208.815V29H207.375ZM213.135 29V0.679998H217.455V29H213.135ZM218.895 29V0.679998H220.335V29H218.895ZM221.775 29V0.679998H226.095V29H221.775ZM227.535 29V0.679998H228.975V29H227.535ZM230.438 29V0.679998H234.758V29H230.438ZM236.198 29V0.679998H240.518V29H236.198ZM241.958 29V0.679998H243.398V29H241.958ZM247.718 29V0.679998H249.158V29H247.718ZM250.598 29V0.679998H252.038V29H250.598ZM242.582 44.504C241.75 44.504 241.014 44.296 240.374 43.88C239.702 43.464 239.174 42.84 238.79 42.008C238.406 41.144 238.214 40.072 238.214 38.792C238.214 37.448 238.422 36.344 238.838 35.48C239.254 34.648 239.782 34.04 240.422 33.656C241.062 33.304 241.75 33.128 242.486 33.128C243.286 33.128 243.974 33.32 244.549 33.704C245.126 34.088 245.558 34.616 245.846 35.288L244.79 35.816L244.646 35.864L244.598 35.768V35.624C244.598 35.496 244.518 35.32 244.358 35.096C244.102 34.744 243.814 34.488 243.494 34.328C243.174 34.168 242.838 34.088 242.486 34.088C241.526 34.088 240.774 34.504 240.23 35.336C239.718 36.136 239.462 37.272 239.462 38.744C239.462 39.64 239.59 40.456 239.846 41.192C240.134 41.896 240.502 42.44 240.95 42.824C241.43 43.208 241.958 43.4 242.534 43.4C242.982 43.4 243.398 43.288 243.782 43.064C244.198 42.808 244.534 42.472 244.79 42.056L245.702 42.68C245.318 43.288 244.886 43.736 244.406 44.024C243.894 44.344 243.286 44.504 242.582 44.504ZM253.5 29V0.679998H254.94V29H253.5ZM259.26 29V0.679998H260.7V29H259.26ZM262.14 29V0.679998H263.58V29H262.14ZM267.9 29V0.679998H269.34V29H267.9ZM273.66 29V0.679998H275.1V29H273.66ZM276.54 29V0.679998H280.86V29H276.54ZM282.3 29V0.679998H283.74V29H282.3ZM285.18 29V0.679998H289.5V29H285.18ZM290.94 29V0.679998H292.38V29H290.94ZM296.7 29V0.679998H298.14V29H296.7ZM276.54 44.456C275.804 44.456 275.148 44.28 274.572 43.928C274.028 43.576 273.596 43.08 273.276 42.44C272.924 41.8 272.748 41.064 272.748 40.232C272.748 39.4 272.924 38.664 273.276 38.024C273.596 37.384 274.028 36.888 274.572 36.536C275.148 36.152 275.804 35.96 276.54 35.96C277.276 35.96 277.916 36.152 278.46 36.536C279.036 36.888 279.484 37.384 279.804 38.024C280.124 38.664 280.284 39.4 280.284 40.232C280.284 41.064 280.124 41.8 279.804 42.44C279.484 43.08 279.036 43.576 278.46 43.928C277.916 44.28 277.276 44.456 276.54 44.456ZM276.54 43.4C276.988 43.4 277.404 43.256 277.788 42.968C278.14 42.712 278.428 42.344 278.652 41.864C278.844 41.352 278.94 40.792 278.94 40.184C278.94 39.256 278.716 38.504 278.268 37.928C277.82 37.352 277.244 37.064 276.54 37.064C275.836 37.064 275.26 37.352 274.812 37.928C274.364 38.504 274.14 39.256 274.14 40.184C274.14 40.792 274.236 41.352 274.428 41.864C274.652 42.344 274.94 42.712 275.292 42.968C275.644 43.256 276.06 43.4 276.54 43.4ZM299.578 29V0.679998H301.018V29H299.578ZM305.338 29V0.679998H306.778V29H305.338ZM308.218 29V0.679998H309.658V29H308.218ZM313.978 29V0.679998H315.418V29H313.978ZM319.738 29V0.679998H321.178V29H319.738ZM322.618 29V0.679998H324.058V29H322.618ZM325.498 29V0.679998H326.938V29H325.498ZM328.378 29V0.679998H332.698V29H328.378ZM334.138 29V0.679998H335.578V29H334.138ZM339.898 29V0.679998H344.218V29H339.898ZM319.45 36.152H320.698V37.592C321.018 37.112 321.418 36.712 321.898 36.392C322.378 36.104 322.89 35.96 323.434 35.96C324.17 35.96 324.762 36.232 325.21 36.776C325.626 37.352 325.834 38.216 325.834 39.368V44.312H324.586V39.416C324.586 38.584 324.458 37.992 324.202 37.64C323.914 37.256 323.546 37.064 323.098 37.064C322.714 37.064 322.346 37.176 321.994 37.4C321.61 37.624 321.29 37.928 321.034 38.312C320.81 38.696 320.698 39.128 320.698 39.608V44.312H319.45V36.152Z" fill="white"/>
</svg>
